<svg width="182" height="73" viewBox="0 0 182 73" fill="none" xmlns="http://www.w3.org/2000/svg">
<g filter="url(#filter0_d_259_5731)">
<path d="M9.14568 39.0632L9.09097 39.1171C9.14568 39.0632 9.14568 39.0632 9.14568 39.0093V38.74C9.74748 35.562 10.8964 32.4378 12.0452 29.3675C13.2488 26.1357 14.3977 22.9576 15.9295 19.8873C17.352 16.9786 18.9932 14.1238 20.8533 11.4844C22.4946 9.06051 24.4641 6.42113 26.9807 4.80519C27.7466 4.58973 28.5125 3.78176 29.4973 3.94335C30.482 4.10495 30.482 5.12838 30.2632 6.09795C30.5368 5.34384 30.7009 4.53587 30.0444 3.99722C29.169 3.35084 27.4731 4.37427 26.7619 4.85906C26.4336 4.96678 26.1054 5.18224 25.8318 5.3977C25.9959 5.23611 26.2148 5.07452 26.4883 4.91292L26.2148 5.02065L26.9807 4.58973C27.856 4.10495 29.8255 3.02765 30.482 4.42814C30.9744 5.5593 30.2085 7.44456 29.8255 8.52186C29.1143 10.3533 28.239 12.0769 27.3089 13.8006C27.4731 13.4236 28.1296 11.9692 28.1296 11.9692C27.7466 11.9153 25.9959 15.9013 25.6677 16.0091H25.7224C25.5036 16.1707 25.3394 16.3323 25.3394 16.3861C25.23 17.0325 25.9959 16.8709 26.4336 16.817C28.2937 16.6016 30.7009 15.0395 31.9045 13.6929C33.2175 12.2385 33.7099 10.0301 33.7099 8.09094V8.03708C33.6551 4.37427 31.0838 -0.2581 26.6524 0.0112233C24.1906 0.118955 21.8928 2.489 20.3062 4.10495C19.1574 5.3977 18.0632 6.79819 17.0784 8.19867C16.6408 8.84505 16.2031 9.43756 15.8201 10.0839C15.3825 10.6765 14.5071 11.5922 14.2883 12.2924C14.2883 12.2924 14.5618 11.9692 14.7807 11.7538C14.1789 12.6694 13.6318 13.639 13.0847 14.5547C13.03 14.5009 13.413 13.7467 13.413 13.7467C12.9206 13.639 10.6775 18.0559 10.404 18.5407C9.41922 20.3183 8.54389 22.0958 7.94209 23.9811C7.28559 26.0818 6.41025 28.0748 5.75375 30.1216C5.42549 31.1451 5.09724 32.1146 4.87841 33.1381C4.76899 33.6229 4.65957 34.0538 4.60486 34.5386C4.60486 34.5924 4.49545 35.4543 4.60486 35.3465C4.49545 35.7236 4.49545 36.2084 4.44074 36.5854C4.44074 36.5854 4.44074 35.6697 4.49545 35.562C4.27661 35.8313 4.44074 36.8547 4.38603 36.9625C4.11249 39.0093 3.67482 41.1639 4.38603 43.1569C5.31608 45.904 7.61384 48.1663 10.1304 49.6207C11.4434 50.4287 13.1941 51.3444 14.8354 51.2366C16.7502 51.1289 18.6103 49.5668 20.0327 48.4357C24.1906 44.9883 27.9655 40.1405 28.6767 34.6463C28.7314 34.2692 29.0049 32.384 28.3484 32.3301C27.7466 32.2762 27.3089 33.569 27.0901 33.8922C25.4489 36.5316 23.534 39.0093 21.4004 41.2717C19.2121 43.6417 16.4766 46.1733 13.1394 46.9275C12.7017 47.0352 12.2094 47.0891 11.717 47.0891C11.0605 47.0352 10.4587 46.8736 9.96631 46.3888C9.69277 46.1195 9.41922 45.2038 9.09097 45.0422C9.09097 44.7729 9.03626 44.5035 8.98155 44.3419L8.81743 44.0188C8.76272 42.4028 8.81743 40.8946 9.09097 39.2248V39.1709C9.09097 39.1171 9.14568 39.1171 9.14568 39.0632ZM18.7744 12.7233C16.6408 16.1707 14.8354 19.7257 13.03 23.3885C11.9905 25.5431 10.9511 27.7516 10.1304 30.0678C11.2793 26.4588 12.647 23.0115 14.2883 19.5641C16.2578 15.4166 18.8838 11.3767 22.0022 8.03708C20.7439 9.54529 19.6497 11.269 18.7744 12.7233ZM24.4094 6.79819C23.6435 7.5523 22.9323 8.41413 22.2758 9.22211C23.3152 7.87548 24.4094 6.52887 25.7771 5.45157C25.2847 5.88249 24.7923 6.42113 24.4094 6.79819ZM29.9897 7.22911C30.0991 6.90592 30.2085 6.52887 30.2632 6.09795C30.1538 6.58273 29.935 7.06751 29.935 7.44457C29.9897 7.33684 29.9897 7.28297 29.9897 7.22911Z" fill="#408F95"/>
<path d="M56.4699 29.96C56.4699 29.96 56.5246 30.0139 56.4699 29.9062C56.1964 29.5291 55.8134 29.7985 55.4305 29.9062C53.8439 30.2294 52.2026 30.6064 50.5614 30.8758C51.1632 28.9366 51.765 26.8898 51.9838 24.8968C52.0932 24.1427 52.1479 23.3347 51.9838 22.5806C51.8744 22.0958 51.7103 21.611 51.4367 21.1801C51.4367 21.1801 50.7802 20.3721 50.9444 20.803L50.8896 20.7492L50.6708 20.3183L50.8896 20.5337C50.9444 20.2105 50.0143 19.618 50.0143 19.618C48.6466 18.2714 46.7865 17.248 44.9264 18.2714C43.7775 18.9178 42.8475 19.9951 42.0816 21.0724C41.808 21.4494 41.5345 21.8803 41.3156 22.3113C41.0968 22.7422 40.7685 24.1427 40.4403 24.3581C40.1668 24.5736 39.3461 24.6274 38.9632 24.8429C38.4161 25.0584 37.9237 25.3277 37.486 25.6509C36.4466 26.2972 35.6259 27.2129 34.86 28.1286C33.547 29.8523 32.8905 31.7915 31.9605 33.5151C30.2098 36.8009 32.1246 41.1101 35.3524 42.6721C36.3919 43.1569 37.5954 43.3724 38.6896 43.2646C39.8385 43.1031 40.9327 42.5106 41.808 41.8642C42.6286 41.2717 44.434 40.1944 44.7623 39.2787C44.7623 39.2248 44.6529 39.2787 44.4887 39.4403L46.0753 37.6089C46.13 37.6627 45.6923 38.2014 45.6923 38.2014C46.0753 38.363 48.0448 35.5081 48.2636 35.2927C48.6466 34.6463 49.0295 33.946 49.4672 33.2997C49.8502 32.8149 49.7408 32.8688 50.2878 32.6533C50.2331 32.7072 50.9444 32.4917 51.0538 32.4917C51.6556 32.384 58.0565 31.953 56.4699 29.96ZM37.5407 40.8407H37.486C32.9452 41.4871 38.1972 32.0069 38.3067 31.4683L37.9784 31.953C38.799 30.3371 39.565 29.0443 39.9479 28.6134C40.5497 31.3067 43.504 32.3301 45.9112 32.6533C44.3246 35.7775 41.3703 40.1405 37.5407 40.8407ZM48.3183 25.9202C47.9354 27.4284 47.6071 29.4214 46.7865 30.768C46.513 31.3067 46.6771 31.1451 46.13 31.2528C45.8017 31.3605 45.0905 31.2528 44.7623 31.1989C44.1605 31.1451 43.4493 31.0373 43.0116 30.6603C42.2457 30.0139 42.3551 28.9905 42.4645 28.0748C42.5739 27.1591 42.8475 26.2972 43.1757 25.4354C43.3399 25.1122 44.3793 23.3885 44.2152 23.0654C44.1605 22.9038 43.5587 23.8733 43.504 23.9272C43.8322 23.3347 44.1605 23.0115 44.434 22.6344C44.3793 22.6344 44.434 22.5806 44.4887 22.4728V22.5267L44.5434 22.419C44.5434 22.419 44.5434 22.3651 44.5982 22.3651C45.4188 21.2878 47.443 18.8639 48.5372 20.5337C49.3578 21.9342 48.5919 24.5736 48.3183 25.9202ZM44.5434 22.419L44.5982 22.3651C44.5982 22.419 44.5434 22.419 44.5434 22.419Z" fill="#408F95"/>
<path d="M85.0073 30.2294V30.1755C84.6791 28.398 82.2172 31.3605 81.8889 31.6299C80.3024 33.3535 78.8252 35.2388 77.4028 37.1241C75.9804 39.0632 74.6127 41.0023 73.1355 42.9415C72.4243 43.911 71.7131 44.8267 70.8925 45.6886C70.6189 46.0118 69.9624 46.9275 69.4701 46.9275C67.5553 46.9275 69.0324 39.3325 69.2512 38.1475C69.5795 36.0468 69.7436 33.2458 71.1113 31.576C71.4396 31.1451 75.1598 26.4588 75.1598 26.4588C75.0503 26.405 74.6127 26.9436 74.3391 27.2668L76.6916 24.1427L76.8557 23.9272L77.2934 23.3347C77.3481 23.3885 77.2934 23.4963 77.2387 23.604L77.7311 23.0654L79.1535 21.234C80.193 19.7796 81.1777 18.2175 82.1077 16.7093C83.5849 14.2315 85.6091 10.6765 84.5149 7.66002C83.6943 5.45157 80.6853 5.02065 78.6611 5.77476C77.184 6.31341 75.9257 7.44457 74.8862 8.62959C74.3391 9.32983 73.792 10.0839 73.2997 10.8919C73.1355 11.1074 72.4243 12.831 72.2602 13.0465H72.3149C71.9866 13.639 71.6584 14.2315 71.4396 14.824C71.549 14.3931 71.8225 13.5313 72.0414 13.3697C71.6037 13.6929 71.2207 15.255 71.1113 15.4166C69.0324 19.8873 67.227 24.412 65.914 29.1521C64.4369 27.4823 62.0844 24.6274 59.5131 25.6509C57.3795 26.5127 55.7929 28.7212 54.6987 30.6603C53.714 32.384 53.4404 34.1615 52.7292 35.8313C51.4709 38.6861 50.8691 44.5574 55.1364 45.4192C56.4494 45.6886 57.653 44.8806 58.6925 44.1804C60.5526 42.8337 62.3032 41.2717 63.9445 39.6557C63.6709 42.5105 63.0691 46.8197 65.4216 49.0821C68.3212 51.9908 71.2207 48.0586 72.9714 45.904C75.2145 43.1031 76.9651 39.9789 79.2082 37.2857C80.3024 35.9929 81.3965 34.7001 82.5454 33.5151C83.4208 32.6533 85.1714 31.576 85.0073 30.2294ZM64.8745 33.7845C64.8198 33.946 64.8198 34.0538 64.8198 34.0538C64.601 35.3465 64.601 36.4777 63.6709 37.3934C62.8503 38.2552 61.975 39.0632 61.0996 39.8712C60.279 40.6253 58.3095 42.8337 57.0512 42.726C55.5194 42.5644 56.6682 39.1171 57.4342 37.0163C56.6135 39.1709 55.3005 42.6721 57.1059 42.7799C57.5983 42.8337 58.4189 42.4028 59.1301 41.8103C58.4736 42.4028 57.3795 43.2108 56.7229 42.8876C55.4647 42.349 56.5588 39.2787 56.7777 38.4168C57.4889 35.939 58.5283 33.569 59.7319 31.3067C60.3337 30.1755 61.2091 28.3441 62.3579 28.2364L62.0844 28.398C62.1391 28.3441 62.1938 28.3441 62.2485 28.3441C62.6315 28.2364 63.0144 28.5057 63.288 28.7212C63.9992 29.2059 64.4369 30.1216 64.9292 30.8219C65.4763 31.6837 65.0934 32.5994 64.8745 33.569V33.7845ZM73.6826 21.3417C73.6826 21.2878 73.6826 21.1801 73.7373 21.1262V21.0724C73.792 20.9108 73.8467 20.8569 73.8467 20.8569V20.803C75.105 17.3557 76.4728 13.9083 78.4423 10.7842C78.9347 9.97621 80.3571 7.49843 81.6154 8.19867C82.1078 8.468 82.2172 9.16824 82.2172 9.65302C82.436 12.8849 79.81 16.7093 78.1687 19.2948C76.2539 22.3112 74.1203 25.2738 71.8772 28.0209L73.0808 26.782L74.175 25.4354L71.3849 28.9905L71.0019 29.4753L70.7831 29.6907C70.8378 29.3675 71.1113 29.0443 71.3849 28.6673C71.2754 28.775 71.166 28.8828 71.1113 28.9905C71.8225 26.6743 72.5885 24.3581 73.4091 22.0419C73.3544 22.0958 73.4091 21.9881 73.4638 21.7726L73.6279 21.5033C73.6279 21.4494 73.6279 21.3955 73.6826 21.3417ZM69.0871 25.7586C68.9777 26.0279 68.6494 27.2668 68.4853 27.4284C68.4853 27.4823 68.4306 27.5361 68.3759 27.5361C68.8136 26.9975 68.54 26.2972 68.7589 25.6509C68.8683 25.3277 69.4154 24.7352 69.5248 24.3042C69.5248 24.7352 69.2512 25.4893 69.0871 25.7586ZM60.3884 40.6791C61.7561 39.4941 63.0692 38.2552 64.3274 36.9625C64.218 37.6627 62.5221 38.8477 61.9203 39.3864C61.2091 40.0866 60.3884 40.7869 59.5678 41.4333H59.5131L60.3884 40.6791ZM70.0719 20.8569C69.853 21.5033 69.5795 22.0958 69.2512 22.6883C69.5248 21.8803 69.6889 21.0724 70.0719 20.3183C70.4001 19.7257 70.7831 18.9716 71.0566 18.2714C70.7831 19.1332 70.3454 20.0489 70.0719 20.8569ZM73.6279 21.5033L73.4091 22.0419C73.4091 21.9881 73.4638 21.8803 73.4638 21.7726L73.6279 21.5033ZM61.8109 28.6134C61.592 28.775 61.4279 28.9905 61.3732 28.9905C61.4826 28.9905 61.6467 28.775 61.8109 28.6134ZM63.3427 28.5057C63.4521 28.5596 63.5615 28.6134 63.6709 28.7212L63.3427 28.5057ZM74.175 27.5361C74.175 27.4823 74.2297 27.4284 74.2844 27.3745C74.2297 27.4823 74.175 27.5361 74.175 27.5361ZM74.2844 27.3745L74.3391 27.2668C74.3391 27.3207 74.2844 27.3745 74.2844 27.3745Z" fill="#408F95"/>
<path d="M101.944 30.0678C101.944 30.1216 101.944 30.1216 101.889 30.0678V30.0139C101.014 28.5596 99.865 30.5526 99.3726 31.2528C98.4426 32.4917 97.5672 33.6767 96.5825 34.8079C95.7618 35.7775 94.8865 36.747 94.23 37.7704C94.23 37.8782 94.1206 38.1475 94.1206 38.1475C93.9017 38.4707 93.5735 38.74 93.2999 39.0632C92.8076 39.548 92.3152 40.0866 91.7681 40.5714C90.9475 41.3255 86.3519 45.5808 85.7502 42.8337C85.4219 41.4871 85.8596 39.8173 86.1331 38.5246C86.2972 37.8243 86.4614 37.1779 86.5708 36.4777C86.6802 35.939 86.5161 35.4004 86.7896 34.8617C86.9537 34.5386 87.0085 34.5924 87.3914 34.4847L88.3215 34.1615C88.9233 33.946 89.525 33.7306 90.0721 33.4074C90.8928 32.9226 91.6587 32.3301 92.3699 31.7376C94.0659 30.3371 95.8712 28.6673 96.5825 26.5666C96.9654 25.3815 97.0201 24.0888 96.2542 23.0654C95.543 22.1497 94.3394 21.6649 93.2452 21.4494C90.291 20.9108 88.0479 22.5806 86.3519 24.789C84.273 27.3207 82.7959 30.4448 82.0847 33.6229C81.7017 35.1849 81.4829 36.747 81.2093 38.363C80.9358 39.9789 80.7717 41.4871 81.647 42.9953C81.5923 42.4567 81.4829 41.9719 81.4829 41.4871C81.4829 41.2178 81.5923 40.9485 81.5923 40.733C81.5923 40.6253 81.4829 40.3021 81.4829 40.1405C81.4829 39.6557 81.5923 39.2787 81.7017 38.7939C81.7564 38.3091 81.7017 37.8243 81.7564 37.3395C81.8111 36.8009 82.03 36.37 82.2488 35.8852C82.4129 35.4543 82.4676 35.0772 82.6318 34.6463C82.7959 34.2692 82.9053 33.8383 83.0694 33.4074C83.1241 33.1381 83.3977 32.8149 83.5618 32.4917C83.3977 32.9765 83.0694 33.4074 82.96 33.8383C82.7959 34.4847 82.9053 35.1849 82.8506 35.8313C82.7412 36.5316 82.5223 37.2318 82.4129 37.9859C82.3035 38.6861 81.9753 39.3325 81.8658 40.0328C81.7564 40.6791 81.5376 41.1639 81.5923 41.8103C81.5923 42.1874 81.647 42.5644 81.7017 42.8876C81.7564 43.3185 82.03 43.5878 82.3035 43.911C83.2336 44.9883 84.4918 45.8502 85.9143 46.2272C86.899 46.4965 87.7744 46.4427 88.7044 45.9579C90.0174 45.2576 91.1663 44.1804 92.1511 43.1569C93.0811 42.1335 93.7923 41.0023 94.6129 39.925C95.3789 38.9555 96.3089 38.0398 97.0748 37.0702L100.029 33.2997L101.725 31.0912C101.999 30.768 102.163 30.4987 101.944 30.0678ZM88.3762 30.6603C88.4309 30.5526 88.4309 30.4987 88.4309 30.4987C89.2515 28.775 89.8533 26.9436 91.0022 25.2738L91.9869 23.9811C92.2058 23.7117 92.5887 23.227 92.9717 23.1192C93.7923 22.9576 94.0112 24.3581 93.9565 24.8968L93.7376 26.0279C93.6829 26.3511 93.7923 26.5666 93.7376 26.8359C93.6282 27.1591 93.3546 27.3207 93.1905 27.59L92.2605 28.775C91.0022 30.2294 89.4156 31.4683 87.665 32.384C87.9385 31.7915 88.1026 31.1989 88.3762 30.6603Z" fill="#408F95"/>
<path d="M131.571 14.2854C131.352 12.5617 128.672 11.269 127.195 12.2924C125.991 13.1004 124.897 15.3088 124.021 16.6016L118.66 24.5736C117.839 25.8125 117.019 27.0514 116.143 28.2364C115.925 28.6134 113.846 31.7915 113.846 31.7915C114.064 31.8453 114.557 31.0912 114.666 30.9835C113.189 33.0303 111.274 35.1849 109.469 37.2318C108.867 37.9859 105.256 42.6721 103.943 42.0796C103.506 41.8642 103.396 41.1639 103.342 40.7869C102.904 37.932 103.998 35.0772 104.326 32.3301L104.107 32.8687L104.436 31.5221C104.436 31.6837 104.381 31.8453 104.381 32.0069L104.436 31.6837L104.272 33.2997C105.038 30.0678 106.132 26.9436 107.39 23.9272C107.718 23.1731 110.891 15.3627 111.548 14.6624C111.438 14.7163 111.274 14.9318 111.11 15.1472C112.15 13.262 113.244 11.4844 114.502 9.76075C114.229 10.1917 113.736 10.9996 113.736 10.9996C113.955 11.0535 116.143 8.09094 116.143 7.76776C116.143 7.71389 115.979 7.82162 115.815 7.92935C116.362 7.22911 116.745 6.85205 116.307 5.66703C115.651 4.32041 113.736 2.6506 112.15 3.45857C111.821 3.67403 111.603 3.94335 111.384 4.21268C110.235 5.66703 109.305 7.5523 108.539 9.16824C108.265 9.81462 108.046 9.92235 107.609 10.4071C106.898 11.2151 106.515 12.2924 106.022 13.2081C105.037 15.1472 104.272 17.1941 103.396 19.1871C102.521 21.0185 101.81 22.9038 101.208 24.8429C100.934 25.597 100.716 26.3511 100.497 27.1052C100.278 27.8593 99.5119 29.2598 99.6213 30.0678L99.9496 29.3675C99.6761 30.2832 99.4572 31.2528 99.2384 32.2224C99.1837 32.2224 99.2931 31.5221 99.2931 31.5221C99.0743 31.5221 98.5819 33.8922 98.4725 34.2154C98.2536 35.3465 98.0895 36.4777 97.9801 37.6627C97.9254 38.9016 97.9801 40.0328 98.5819 41.1639C99.7308 43.1569 101.81 45.0961 104.053 45.7963C104.436 45.904 104.873 46.0118 105.256 45.9579C105.639 45.904 106.022 45.7424 106.296 45.4731C106.515 45.3654 107.39 44.4497 106.788 44.8806L107.828 43.911C107.828 43.911 107.335 44.5035 107.171 44.6113C107.445 44.5035 108.046 43.6956 108.046 43.6956C109.852 41.7564 111.657 39.8712 113.299 37.7704C114.994 35.5081 116.526 33.0303 118.058 30.6064C117.62 31.8992 117.511 33.1919 117.128 34.4847C116.909 35.1849 116.69 35.8852 116.526 36.5854C116.417 36.8547 116.307 38.1475 116.417 38.0398C116.417 38.2014 116.417 38.3091 116.362 38.4168C116.362 38.363 116.362 38.3091 116.307 38.2552C116.143 38.3091 116.143 39.925 116.089 40.1944C115.87 40.9485 115.542 41.6487 115.432 42.5105C115.159 44.7729 115.323 47.4122 116.745 49.3514C117.62 50.5364 118.934 51.1828 120.411 51.2905C121.997 51.3444 122.873 50.4825 123.693 49.2975C124.24 48.4895 124.733 47.7893 125.061 46.8736C125.334 46.1195 125.882 44.6651 125.553 43.911C125.334 43.4262 125.225 43.3724 124.787 43.5878C124.186 43.8033 123.474 45.0961 123.091 45.5808C122.544 46.1734 121.45 47.6816 120.52 47.7893C119.973 47.8432 120.082 47.7354 119.973 47.0891C119.918 46.712 119.918 44.1804 119.973 44.1265C119.809 44.3419 119.754 44.5574 119.699 44.7729C119.918 42.9953 120.684 40.8407 121.231 38.9555C121.888 36.747 122.38 34.5386 122.982 32.3301C123.638 30.0678 124.514 27.8055 125.444 25.6509C125.663 25.1661 128.125 19.8335 128.508 19.3487C128.125 19.618 126.155 23.7117 125.499 25.0584C126.812 21.9881 128.343 19.0255 130.258 16.2245C130.313 16.2245 129.711 17.1402 129.821 17.1402C129.985 17.248 131.298 15.255 131.188 15.2011C131.134 15.2011 131.079 15.2011 131.024 15.255C131.298 14.9856 131.626 14.824 131.571 14.2854ZM117.292 39.8712C116.8 42.0796 116.253 45.0422 116.69 47.2506C116.198 44.7729 116.362 41.9719 116.8 39.4941C117.128 37.4473 117.73 35.562 118.441 33.6767C117.839 35.8313 117.785 37.7166 117.292 39.8712ZM108.156 19.4025C109.688 15.7936 111.876 12.5079 114.174 9.3837C111.876 12.6156 110.016 16.1168 108.375 19.7257C107.116 22.5806 105.968 25.3277 105.147 28.1825C105.311 27.4284 105.475 26.6743 105.749 25.9202C106.405 23.7117 107.281 21.5571 108.156 19.4025ZM106.898 24.6274C107.882 21.9881 109.031 19.3487 110.344 16.7632C109.141 19.241 107.499 23.1192 106.898 24.6274ZM124.24 28.1825C124.076 28.6673 123.857 29.1521 123.638 29.583L124.623 27.1052L124.24 28.1825Z" fill="#408F95"/>
<path d="M159.665 30.0139C159.337 30.0678 156.492 30.9296 156.656 31.3605C156.656 31.4144 156.766 31.4683 156.82 31.4683C155.89 31.8453 154.687 31.8992 153.757 32.4917C152.717 33.1919 151.733 33.8922 150.638 34.4847C151.623 32.8149 152.553 31.0373 153.155 29.2598C153.374 28.6134 154.632 24.6274 153.812 24.1965C153.702 24.1427 153.647 24.6274 153.593 24.8968C153.647 22.7422 152.936 19.4564 149.982 19.241C148.177 19.1332 146.481 21.3417 145.496 22.5267C143.253 25.3277 141.283 28.3441 139.314 31.2528C138.767 32.0608 133.296 40.7869 133.296 40.7869C133.296 40.7869 133.679 40.2482 134.171 39.548C133.679 40.356 133.186 41.2178 132.749 42.0796C132.968 41.2717 135.046 34.8617 136.359 31.0912C136.469 30.9296 136.524 30.7142 136.578 30.5526L136.907 29.6369V29.6907C137.399 28.2364 137.891 26.782 138.329 25.2738C138.329 25.4354 138.11 26.2434 138.165 26.2434C138.493 26.2972 138.931 24.0349 138.712 24.0349L138.548 24.3042C138.712 23.4963 138.985 23.1192 138.493 22.2035C138.11 21.3955 137.454 20.6414 136.524 20.426C134.718 19.9412 133.843 21.3955 133.952 22.796C133.952 23.0115 134.226 23.1192 134.226 23.3347C134.226 23.604 133.952 24.0888 133.898 24.3042C133.515 25.4354 133.241 26.5127 132.803 27.59C132.585 28.1825 130.56 33.7845 130.56 33.7845C130.67 33.7306 130.724 33.6229 130.779 33.5151C130.615 33.9999 130.451 34.4847 130.232 34.9695C130.177 34.9156 130.396 34.5386 130.287 34.5386C129.74 34.4308 128.372 38.9555 128.263 39.3864C128.044 40.4098 127.77 41.3794 127.387 42.4028C127.223 42.9415 127.004 43.4801 126.84 44.0726C126.84 44.1265 126.567 45.4192 126.84 44.9345C126.785 45.0961 126.731 45.2038 126.731 45.3115C126.731 45.2576 126.676 45.2038 126.676 45.1499C126.512 45.2038 126.403 46.3349 126.403 46.3888C126.184 46.9813 125.91 47.4122 125.637 47.9509C124.925 49.6746 124.542 51.5598 124.269 53.3912C123.831 56.1922 122.518 60.3937 123.941 62.9792C124.433 63.8949 125.965 65.7801 127.168 64.649C127.716 64.1103 127.716 62.8714 127.77 62.2251C128.098 60.4475 128.372 58.6161 128.755 56.8386L129.247 54.3608C129.302 54.2531 129.74 52.2601 129.576 52.3139C129.466 52.4217 129.357 52.5833 129.302 52.7449C129.576 51.883 129.959 51.075 130.287 50.1593C130.724 48.8666 131.053 47.6277 131.709 46.4427C132.475 45.2576 133.132 43.9649 133.843 42.7799C134.39 41.8103 134.882 40.5714 135.484 39.7634C135.648 39.548 135.977 39.4403 136.25 39.2248C136.797 38.6323 137.18 37.8243 137.618 37.1779C138.438 35.8852 139.15 34.5924 140.025 33.4074C140.408 32.8687 144.785 26.8359 145.222 26.4588C145.113 26.5127 145.003 26.5666 144.894 26.6743C145.332 26.1357 145.824 25.6509 146.262 25.2199C146.316 25.2738 145.933 25.597 145.988 25.6509C146.098 25.7047 148.614 23.7656 149.052 23.7117C150.255 23.4963 149.818 25.7586 149.654 26.3511C149.38 27.59 148.669 28.775 148.067 29.8523C147.739 30.4448 147.411 30.9835 147.137 31.576C147.082 31.6299 146.645 32.6533 146.809 32.5456L146.481 33.0303C146.59 32.8687 146.645 32.6533 146.645 32.6533C146.426 32.6533 146.152 33.569 146.098 33.7306C145.769 34.2692 145.332 34.7001 144.894 35.1311C143.745 36.4238 142.706 37.7704 141.557 39.0093C140.681 39.925 139.533 41.541 138.22 41.8642C137.29 42.0796 136.578 41.5948 137.071 43.0492C137.399 44.0726 138.603 46.4427 139.916 46.4427C141.119 46.4427 142.596 44.6651 143.307 43.911C144.128 42.9953 145.058 42.1335 145.933 41.1639C146.152 40.8407 148.669 37.8782 149.052 37.7166H148.997C149.544 37.4473 150.091 37.6627 150.857 37.1241C151.295 36.8009 151.514 36.4777 152.006 36.1545C152.389 35.939 152.553 35.6697 152.717 35.5081C152.717 35.5081 152.717 35.562 152.772 35.562C153.319 35.0233 154.085 35.1849 154.796 34.7001C155.672 34.1076 156.766 33.3535 157.532 32.6533C158.516 31.7915 159.884 31.3067 160.322 29.8523C160.103 29.9062 159.829 29.9062 159.665 30.0139ZM131.655 35.5081V35.562C131.6 36.2622 131.107 37.0702 130.834 37.7166C130.451 38.74 130.123 39.7634 129.794 40.7869C129.083 42.9415 128.263 45.0961 127.387 47.1429C126.676 48.8666 126.02 50.7519 125.527 52.6371C126.129 49.9978 127.114 47.4122 127.88 44.9345C128.591 42.6721 129.685 40.4637 130.56 38.2552C130.67 37.9859 131.709 35.8313 131.6 35.4004C131.655 35.4543 131.655 35.5081 131.655 35.5081ZM134.062 37.1241C133.898 37.7704 133.733 38.363 133.515 38.9016C133.679 38.363 133.843 37.7166 134.062 37.1241ZM141.557 28.2902L140.517 29.7985C140.846 29.3137 141.174 28.775 141.557 28.2902ZM150.474 34.8079C150.529 34.6463 150.803 34.5924 150.967 34.4847L150.474 34.8079ZM137.399 28.5057C137.344 28.5596 137.29 28.7212 137.235 28.9366L137.399 28.5057ZM139.861 30.768V30.7142C139.916 30.6603 139.916 30.6603 139.916 30.6064C139.97 30.5526 139.916 30.6603 139.861 30.768ZM137.016 29.4214C137.016 29.5291 136.961 29.583 136.907 29.6369L137.016 29.4214ZM125.418 53.1219C125.418 53.068 125.418 53.068 125.472 53.0142C125.472 53.068 125.472 53.068 125.418 53.1219ZM134.39 36.4777C134.39 36.5316 134.335 36.5316 134.335 36.5316L134.39 36.4777Z" fill="#408F95"/>
<path d="M177.988 30.7142C177.823 29.9601 177.386 29.8523 176.839 30.0678C175.799 30.5526 174.76 31.6299 173.775 32.2762C171.532 33.6767 169.289 34.8079 166.882 35.9929C166.882 35.939 166.827 35.8313 166.772 35.6697C166.827 35.939 166.772 36.0468 166.718 36.1006C166.171 33.7845 165.623 31.4683 165.186 29.0982C165.405 30.1216 165.897 31.8453 166.28 33.2997C165.788 31.0373 165.186 28.2364 165.24 28.2364C165.131 28.2902 165.131 28.398 165.131 28.5057C165.022 27.8593 164.858 27.0514 164.967 26.3511C165.022 25.5431 165.459 24.8429 165.733 24.0888C165.678 24.4658 165.569 24.9506 165.569 24.9506C165.897 25.0045 166.116 23.0115 166.116 22.796C166.061 22.4728 165.35 21.4494 165.35 21.7187C163.873 20.3721 160.973 23.3347 160.536 24.6274C160.207 25.4893 160.207 26.405 160.262 27.3207C160.317 28.2364 160.59 29.0443 160.864 29.9062C161.028 30.5526 160.809 30.9835 160.864 31.6837C160.973 32.761 161.356 33.8383 161.575 34.8617C161.794 35.6697 162.505 37.2857 162.341 38.0398C162.232 38.7939 160.59 39.4403 159.879 39.8712C158.949 40.4637 158.019 41.1639 157.089 41.8642C155.448 43.1031 153.697 44.6651 153.04 46.6581C152.931 46.9275 152.548 48.1125 152.931 48.3279C152.986 48.3818 153.15 47.4661 153.205 47.3584C152.493 50.9134 156.049 52.6371 159.387 52.691C163.162 52.7987 165.788 50.6441 167.101 47.3045C167.648 45.8502 167.812 44.3419 167.757 42.8337C167.757 41.8103 167.648 40.8407 167.484 39.8712C167.374 39.0093 167.265 39.0632 167.867 38.5784C168.304 38.2552 168.961 38.0398 169.398 37.8243C171.149 36.9086 172.736 35.8313 174.322 34.7001C175.471 33.8922 178.206 32.4917 177.988 30.768V30.7142ZM155.885 49.2436C154.463 48.8127 155.885 46.6043 156.378 45.904C157.198 44.8267 158.402 44.0188 159.496 43.2646L161.137 42.1874C161.301 42.0796 162.341 41.2717 162.013 41.3794L162.669 41.0023L162.286 41.3255C162.396 41.2717 162.56 41.2178 162.669 41.1101C162.724 42.4028 162.724 43.6956 162.341 44.9883C162.286 45.2038 161.247 47.3584 160.809 47.7893L161.083 47.5738C160.59 48.1663 160.043 48.6511 159.387 49.0282C159.387 48.9743 159.879 48.6511 159.824 48.5973L158.293 49.1898C157.527 49.3514 156.651 49.513 155.885 49.2436ZM162.779 50.8057C161.356 51.3982 159.988 51.6676 158.511 51.7214C161.192 51.5598 163.982 50.2671 165.569 48.0586C164.967 49.2436 164.201 50.1593 162.779 50.8057ZM166.772 35.5081C166.718 35.1311 166.608 34.5924 166.444 33.9999C166.554 34.5924 166.663 35.1849 166.772 35.5081ZM167.484 41.1101C167.429 41.0562 167.429 40.9485 167.429 40.8407C167.429 40.9485 167.484 41.0562 167.484 41.1101Z" fill="#408F95"/>
</g>
<defs>
<filter id="filter0_d_259_5731" x="0" y="0" width="182" height="73" filterUnits="userSpaceOnUse" color-interpolation-filters="sRGB">
<feFlood flood-opacity="0" result="BackgroundImageFix"/>
<feColorMatrix in="SourceAlpha" type="matrix" values="0 0 0 0 0 0 0 0 0 0 0 0 0 0 0 0 0 0 127 0" result="hardAlpha"/>
<feOffset dy="4"/>
<feGaussianBlur stdDeviation="2"/>
<feComposite in2="hardAlpha" operator="out"/>
<feColorMatrix type="matrix" values="0 0 0 0 0 0 0 0 0 0 0 0 0 0 0 0 0 0 0.25 0"/>
<feBlend mode="normal" in2="BackgroundImageFix" result="effect1_dropShadow_259_5731"/>
<feBlend mode="normal" in="SourceGraphic" in2="effect1_dropShadow_259_5731" result="shape"/>
</filter>
</defs>
</svg>
